<?xml version="1.0" encoding="iso-8859-1"?>
<!-- Uploaded to: SVG Repo, www.svgrepo.com, Generator: SVG Repo Mixer Tools -->
<svg version="1.1" id="Layer_1" xmlns="http://www.w3.org/2000/svg" xmlns:xlink="http://www.w3.org/1999/xlink" 
	 viewBox="0 0 512 512" xml:space="preserve">
<circle style="fill:#324A5E;" cx="256" cy="256" r="256"/>
<path style="fill:#2B3B4E;" d="M512,256c0-3.76-0.098-7.496-0.259-11.216L389.479,122.521l-34.525,43.667L256,67.232l0.679,88.255
	h-36.393l-17.777,17.777l-36.738-36.738l-18.299,10.945l-15.75,14.014l41.284,41.284l-16.767,16.767v36.014L67.232,256
	l92.748,92.748l-37.457,40.732l122.261,122.261c3.72,0.16,7.458,0.259,11.217,0.259C397.384,512,512,397.384,512,256z"/>
<path style="fill:#79D720;" d="M256,137.802l-11.028-11.028c-13.398-13.398-13.396-35.119,0-48.516L256,67.232l11.028,11.028
	c13.396,13.398,13.396,35.119,0,48.516L256,137.802z"/>
<path style="fill:#66B31B;" d="M267.026,78.258L256,67.232l-0.574,0.574v69.422l0.574,0.574l11.026-11.026
	C280.424,113.378,280.424,91.657,267.026,78.258z"/>
<path style="fill:#79D720;" d="M256,374.198l11.028,11.028c13.398,13.398,13.396,35.119,0,48.516L256,444.768l-11.028-11.028
	c-13.398-13.398-13.396-35.119,0-48.516L256,374.198z"/>
<g>
	<path style="fill:#66B31B;" d="M267.028,385.224L256,374.196l-0.574,0.574v69.422l0.574,0.576l11.026-11.028
		C280.424,420.343,280.424,398.622,267.028,385.224z"/>
	<path style="fill:#66B31B;" d="M374.198,256l11.028-11.028c13.398-13.398,35.119-13.396,48.516,0L444.768,256l-11.028,11.028
		c-13.398,13.396-35.119,13.396-48.516,0L374.198,256z"/>
</g>
<path style="fill:#79D720;" d="M137.802,256l-11.028,11.028c-13.398,13.398-35.119,13.396-48.516,0L67.232,256l11.028-11.028
	c13.398-13.398,35.119-13.396,48.516,0L137.802,256z"/>
<path style="fill:#66B31B;" d="M339.578,172.422v-15.594c0-18.947,15.36-34.306,34.306-34.306h15.594v15.594
	c0,18.947-15.36,34.306-34.306,34.306H339.578z"/>
<g>
	<path style="fill:#79D720;" d="M172.423,339.578v15.594c0,18.947-15.36,34.306-34.306,34.306h-15.594v-15.594
		c0-18.947,15.36-34.306,34.306-34.306H172.423z"/>
	<path style="fill:#79D720;" d="M172.422,172.422h-15.594c-18.947,0-34.306-15.36-34.306-34.306v-15.594h15.594
		c18.947,0,34.306,15.36,34.306,34.306V172.422z"/>
</g>
<g>
	<path style="fill:#66B31B;" d="M339.578,339.577h15.594c18.947,0,34.306,15.36,34.306,34.306v15.594h-15.594
		c-18.947,0-34.306-15.36-34.306-34.306V339.577z"/>
	<rect x="249.518" y="307.476" style="fill:#66B31B;" width="12.964" height="51.855"/>
</g>
<rect x="255.431" y="307.476" style="fill:#599B13;" width="7.056" height="51.855"/>
<path style="fill:#CFDBE6;" d="M265.647,309.398h-19.292c-18.049,0-32.682-14.633-32.682-32.682v-30.81h84.654v30.81
	C298.327,294.767,283.696,309.398,265.647,309.398z"/>
<path style="fill:#B8C9D9;" d="M255.426,245.907v63.491h10.221c18.049,0,32.682-14.633,32.682-32.682v-30.81H255.426z"/>
<path style="fill:#CFDBE6;" d="M227.831,246.899h-3.188c-2.407,0-4.358-1.951-4.358-4.358v-38.9c0-2.407,1.951-4.358,4.358-4.358
	h3.188c2.407,0,4.358,1.951,4.358,4.358v38.9C232.191,244.948,230.24,246.899,227.831,246.899z"/>
<path style="fill:#B8C9D9;" d="M287.354,246.899h-3.188c-2.407,0-4.36-1.951-4.36-4.358v-38.9c0-2.407,1.951-4.358,4.36-4.358h3.188
	c2.407,0,4.358,1.951,4.358,4.358v38.9C291.714,244.948,289.763,246.899,287.354,246.899z"/>
<path style="fill:#F9B54C;" d="M302.93,255.828h-93.86c-1.202,0-2.177-0.974-2.177-2.177v-17.472c0-1.202,0.974-2.177,2.177-2.177
	h93.86c1.202,0,2.177,0.974,2.177,2.177v17.472C305.107,254.854,304.131,255.828,302.93,255.828z"/>
<path style="fill:#F4A200;" d="M302.93,234.003h-47.504v21.825h47.504c1.202,0,2.177-0.974,2.177-2.177v-17.472
	C305.107,234.977,304.131,234.003,302.93,234.003z"/>
<path style="fill:#66B31B;" d="M417.647,250.828h-52.293c-1.229-26.295-11.769-50.197-28.401-68.465l37.007-37.007
	c2.02-2.02,2.02-5.294,0-7.313c-2.02-2.02-5.292-2.02-7.313,0l-37.007,37.007c-18.268-16.634-42.17-27.174-68.467-28.403V94.353
	c0-2.857-2.315-5.172-5.172-5.172s-5.172,2.315-5.172,5.172v52.293c-26.296,1.229-50.197,11.769-68.467,28.403l-37.009-37.007
	c-2.02-2.02-5.292-2.02-7.313,0c-2.02,2.019-2.02,5.294,0,7.313l37.007,37.007c-16.632,18.268-27.174,42.17-28.403,68.467H94.353
	c-2.857,0-5.172,2.315-5.172,5.172s2.315,5.172,5.172,5.172h52.293c1.229,26.296,11.769,50.198,28.403,68.467l-37.007,37.007
	c-2.02,2.019-2.02,5.294,0,7.313c1.01,1.01,2.334,1.515,3.656,1.515s2.646-0.505,3.656-1.515l37.009-37.009
	c18.268,16.632,42.17,27.172,68.465,28.401v52.293c0,2.857,2.315,5.172,5.172,5.172s5.172-2.315,5.172-5.172v-52.293
	c26.296-1.229,50.197-11.769,68.467-28.403l37.007,37.007c1.01,1.01,2.334,1.515,3.656,1.515s2.646-0.505,3.656-1.515
	c2.02-2.019,2.02-5.294,0-7.313l-37.007-37.007c16.632-18.268,27.174-42.17,28.403-68.467h52.293c2.857,0,5.172-2.315,5.172-5.172
	S420.504,250.828,417.647,250.828z M256,353.418c-53.715,0-97.418-43.703-97.418-97.418s43.703-97.418,97.418-97.418
	s97.418,43.703,97.418,97.418S309.715,353.418,256,353.418z"/>
<path style="fill:#599B13;" d="M417.647,250.828h-52.293c-1.229-26.295-11.769-50.197-28.401-68.465l37.007-37.007
	c2.02-2.02,2.02-5.294,0-7.313c-2.02-2.02-5.292-2.02-7.313,0l-37.007,37.007c-18.268-16.634-42.17-27.174-68.467-28.403V94.353
	c0-2.857-2.315-5.172-5.172-5.172c-0.197,0-0.383,0.036-0.574,0.059v69.358c0.193-0.002,0.381-0.014,0.574-0.014
	c53.715,0,97.418,43.703,97.418,97.418s-43.703,97.418-97.418,97.418c-0.193,0-0.381-0.014-0.574-0.014v69.358
	c0.191,0.021,0.378,0.059,0.574,0.059c2.857,0,5.172-2.315,5.172-5.172v-52.293c26.296-1.229,50.197-11.769,68.467-28.403
	l37.007,37.007c1.01,1.01,2.334,1.515,3.656,1.515s2.646-0.505,3.656-1.515c2.02-2.019,2.02-5.294,0-7.313l-37.007-37.007
	c16.632-18.268,27.174-42.17,28.403-68.467h52.293c2.857,0,5.172-2.315,5.172-5.172S420.504,250.828,417.647,250.828z"/>
</svg>